<svg width="295" height="156" viewBox="0 0 295 156" fill="none" xmlns="http://www.w3.org/2000/svg">
<g clip-path="url(#clip0_94_507)">
<path d="M39.6697 81.3096H30.2287C29.8968 81.3096 29.5784 81.4371 29.3437 81.6642C29.1089 81.8912 28.9771 82.1992 28.9771 82.5202V86.5284C28.9771 86.8495 29.1089 87.1575 29.3437 87.3845C29.5784 87.6115 29.8968 87.7391 30.2287 87.7391H31.7932V93.7447H38.1052V87.7391H39.6697C40.0016 87.7391 40.32 87.6115 40.5547 87.3845C40.7895 87.1575 40.9213 86.8495 40.9213 86.5284V82.5202C40.9213 82.1992 40.7895 81.8912 40.5547 81.6642C40.32 81.4371 40.0016 81.3096 39.6697 81.3096Z" fill="#8C0B0B"/>
<path d="M49.1257 117.993C43.3438 109.809 40.3879 100.066 40.6816 90.158C40.6869 89.9294 40.6102 89.706 40.4645 89.5259C40.3189 89.3458 40.1133 89.22 39.8826 89.1699V87.438H29.9117V89.1458H29.7743C29.6337 89.146 29.4946 89.1742 29.3658 89.2287C29.2369 89.2832 29.1211 89.3628 29.0255 89.4626C28.9298 89.5623 28.8565 89.68 28.81 89.8084C28.7636 89.9368 28.745 90.0731 28.7554 90.2087C29.5409 100.8 26.8884 110.298 20.7978 118.703C20.4473 119.186 20.2683 119.766 20.2875 120.356L21.3778 152.976C21.404 153.704 21.7197 154.393 22.2591 154.901C22.7984 155.409 23.5197 155.696 24.2723 155.701H46.825C47.5862 155.695 48.315 155.402 48.856 154.884C49.397 154.366 49.7074 153.664 49.7212 152.928L50.1414 121.256C50.1538 120.094 49.7995 118.955 49.1257 117.993Z" fill="#3F3D56"/>
<path opacity="0.2" d="M37.7014 82.6157C37.7014 83.3085 37.4169 83.9728 36.9105 84.4627C36.4041 84.9525 35.7172 85.2277 35.001 85.2277C34.2848 85.2277 33.5979 84.9525 33.0915 84.4627C32.585 83.9728 32.3005 83.3085 32.3005 82.6157" fill="black"/>
<path d="M45.5556 128.828H42.8247C42.564 127.192 41.7064 125.7 40.407 124.622C39.1077 123.544 37.4524 122.951 35.7406 122.951C34.0288 122.951 32.3735 123.544 31.0741 124.622C29.7748 125.7 28.9172 127.192 28.6564 128.828H25.9253C25.6347 128.828 25.3476 128.889 25.0836 129.006C24.8196 129.124 24.5849 129.295 24.3957 129.508C24.2065 129.722 24.0672 129.972 23.9874 130.242C23.9076 130.512 23.8892 130.796 23.9333 131.074L26.8998 149.724H43.9334L47.5365 131.137C47.5911 130.855 47.5809 130.566 47.5065 130.288C47.4322 130.011 47.2956 129.753 47.1065 129.533C46.9174 129.312 46.6804 129.135 46.4123 129.013C46.1443 128.891 45.8518 128.828 45.5556 128.828Z" fill="#8C0B0B"/>
<path d="M275.052 98.8506L274.396 124.176L273.585 155.58H245.971L245.02 118.786L244.504 98.8506H275.052Z" fill="#E6E6E6"/>
<path d="M261.611 85.3774H257.701V135.488H261.611V85.3774Z" fill="#8C0B0B"/>
<path d="M273.097 117.933L272.357 153.928H247.187L246.32 111.756C248.588 111.14 250.963 110.982 253.296 111.292C255.629 111.603 257.872 112.375 259.883 113.56C264.089 115.966 268.813 117.261 273.097 117.933Z" fill="#3F3D56"/>
<path d="M253.418 121.985H249.83V125.455H253.418V121.985Z" fill="#E6E6E6"/>
<path d="M255.862 114.894H252.274V118.364H255.862V114.894Z" fill="#E6E6E6"/>
<path d="M263.566 119.803L260.684 117.736L258.547 120.523L261.429 122.59L263.566 119.803Z" fill="#E6E6E6"/>
<path d="M270.048 125.952L267.167 123.884L265.029 126.672L267.911 128.739L270.048 125.952Z" fill="#E6E6E6"/>
<path d="M259.051 129.497L256.169 127.43L254.032 130.218L256.914 132.285L259.051 129.497Z" fill="#E6E6E6"/>
<path d="M267.476 113.506C267.881 113.506 268.209 113.188 268.209 112.797C268.209 112.405 267.881 112.087 267.476 112.087C267.071 112.087 266.743 112.405 266.743 112.797C266.743 113.188 267.071 113.506 267.476 113.506Z" fill="#3F3D56"/>
<path d="M252.569 108.778C252.974 108.778 253.302 108.461 253.302 108.069C253.302 107.677 252.974 107.36 252.569 107.36C252.164 107.36 251.836 107.677 251.836 108.069C251.836 108.461 252.164 108.778 252.569 108.778Z" fill="#3F3D56"/>
<path d="M265.032 103.814C265.437 103.814 265.765 103.497 265.765 103.105C265.765 102.713 265.437 102.396 265.032 102.396C264.627 102.396 264.299 102.713 264.299 103.105C264.299 103.497 264.627 103.814 265.032 103.814Z" fill="#3F3D56"/>
<path d="M147.669 155.363C192.024 155.363 227.981 120.584 227.981 77.6817C227.981 34.7793 192.024 0 147.669 0C103.314 0 67.3564 34.7793 67.3564 77.6817C67.3564 120.584 103.314 155.363 147.669 155.363Z" fill="#8C0B0B"/>
<path opacity="0.2" d="M147.669 134.382C134.107 134.382 120.964 129.833 110.481 121.512C99.9972 113.19 92.8212 101.609 90.1755 88.7435C87.5297 75.8778 89.5779 62.5228 95.9711 50.9539C102.364 39.3851 112.707 30.3183 125.236 25.2984C137.766 20.2785 151.708 19.616 164.686 23.424C177.664 27.2319 188.875 35.2746 196.41 46.1816C203.944 57.0886 207.336 70.1852 206.007 83.2398C204.677 96.2944 198.709 108.499 189.12 117.775C183.689 123.057 177.229 127.244 170.114 130.094C162.999 132.945 155.37 134.402 147.669 134.382ZM147.669 24.4786C117.339 24.4786 92.6637 48.3455 92.6637 77.6819C92.6637 107.018 117.339 130.885 147.669 130.885C177.998 130.885 202.674 107.018 202.674 77.6819C202.674 48.3455 177.998 24.4786 147.669 24.4786Z" fill="black"/>
<path d="M147.669 132.633C179.046 132.633 204.482 108.031 204.482 77.6817C204.482 47.3327 179.046 22.73 147.669 22.73C116.292 22.73 90.8562 47.3327 90.8562 77.6817C90.8562 108.031 116.292 132.633 147.669 132.633Z" fill="#3F3D56"/>
<path d="M105.418 55.7088C104.988 54.8926 104.727 54.0022 104.652 53.0886C104.578 52.175 104.69 51.2561 104.982 50.3844C105.275 49.5127 105.742 48.7054 106.357 48.0084C106.973 47.3115 107.724 46.7388 108.568 46.3229C109.412 45.907 110.333 45.6562 111.278 45.5847C112.223 45.5132 113.172 45.6226 114.073 45.9064C114.974 46.1903 115.808 46.6431 116.528 47.239C117.248 47.8349 117.84 48.5622 118.269 49.3793L134.32 79.8661C134.751 80.6824 135.011 81.5727 135.086 82.4863C135.161 83.3999 135.049 84.3188 134.756 85.1905C134.464 86.0622 133.996 86.8696 133.381 87.5665C132.766 88.2634 132.014 88.8362 131.17 89.2521C130.326 89.668 129.405 89.9188 128.46 89.9903C127.516 90.0617 126.566 89.9524 125.665 89.6685C124.764 89.3847 123.93 88.9319 123.21 88.336C122.49 87.7401 121.899 87.0128 121.469 86.1957L105.418 55.7088Z" fill="#FF6584"/>
<path opacity="0.2" d="M107.209 59.1092L106.468 57.7021C110.165 54.9235 114.507 52.88 119.318 51.3726L120.059 52.7796C114.852 53.8285 110.421 55.7696 107.209 59.1092Z" fill="black"/>
<path opacity="0.2" d="M110.666 65.6756L109.925 64.2685C113.622 61.4899 117.964 59.4464 122.775 57.939L123.516 59.346C118.309 60.3949 113.878 62.3361 110.666 65.6756Z" fill="black"/>
<path opacity="0.2" d="M114.123 72.242L113.382 70.8349C117.08 68.0563 121.421 66.0128 126.232 64.5054L126.973 65.9125C121.766 66.9613 117.335 68.9025 114.123 72.242Z" fill="black"/>
<path opacity="0.2" d="M117.58 78.8084L116.839 77.4013C120.537 74.6227 124.878 72.5792 129.69 71.0718L130.43 72.4789C125.223 73.5278 120.792 75.4689 117.58 78.8084Z" fill="black"/>
<path opacity="0.2" d="M121.037 85.3748L120.296 83.9677C123.994 81.1891 128.335 79.1456 133.147 77.6382L133.887 79.0453C128.68 80.0942 124.25 82.0353 121.037 85.3748Z" fill="black"/>
<path d="M93.3764 67.1218C92.9456 66.3055 92.6854 65.4152 92.6106 64.5017C92.5358 63.5881 92.6479 62.6693 92.9405 61.7977C93.233 60.926 93.7003 60.1187 94.3156 59.4219C94.9309 58.725 95.6822 58.1523 96.5264 57.7365C97.3707 57.3206 98.2914 57.0698 99.236 56.9983C100.181 56.9268 101.13 57.0361 102.031 57.3199C102.932 57.6037 103.766 58.0564 104.486 58.6522C105.206 59.248 105.797 59.9752 106.227 60.7922L122.278 91.2791C123.143 92.927 123.297 94.8399 122.705 96.5974C122.113 98.3548 120.824 99.8131 119.121 100.652C117.418 101.491 115.441 101.641 113.623 101.071C111.805 100.5 110.296 99.2548 109.427 97.6086L93.3764 67.1218Z" fill="#FF6584"/>
<path opacity="0.2" d="M95.1669 70.5223L94.426 69.1152C98.1232 66.3366 102.465 64.293 107.276 62.7856L108.017 64.1927C102.81 65.2416 98.3792 67.1827 95.1669 70.5223Z" fill="black"/>
<path opacity="0.2" d="M98.6239 77.0887L97.8831 75.6816C101.58 72.903 105.922 70.8594 110.733 69.3521L111.474 70.7591C106.267 71.808 101.836 73.7491 98.6239 77.0887Z" fill="black"/>
<path opacity="0.2" d="M102.081 83.6551L101.34 82.248C105.038 79.4694 109.379 77.4259 114.19 75.9185L114.931 77.3255C109.724 78.3744 105.293 80.3155 102.081 83.6551Z" fill="black"/>
<path opacity="0.2" d="M105.538 90.2215L104.797 88.8144C108.495 86.0358 112.836 83.9923 117.648 82.4849L118.388 83.8919C113.181 84.9408 108.75 86.882 105.538 90.2215Z" fill="black"/>
<path opacity="0.2" d="M108.995 96.7879L108.254 95.3808C111.952 92.6022 116.293 90.5587 121.105 89.0513L121.845 90.4584C116.638 91.5072 112.208 93.4484 108.995 96.7879Z" fill="black"/>
<path d="M185.63 79.43L185.681 79.43C187.41 79.444 189.103 78.9538 190.539 78.0231C191.976 77.0924 193.089 75.7646 193.733 74.2129C195.059 70.9718 195.727 67.5142 195.701 64.0288C195.611 49.2766 183.203 37.174 167.952 36.97C161.457 36.882 155.13 38.9692 150.045 42.8776C144.959 46.786 141.427 52.2752 140.047 58.4147C138.668 64.5542 139.526 70.9662 142.476 76.5638C145.426 82.1614 150.286 86.6001 156.233 89.1276C157.804 89.8006 159.549 89.9985 161.239 89.6954C162.929 89.3923 164.485 88.6024 165.702 87.4291C168.314 84.8898 171.419 82.8756 174.84 81.5027C178.26 80.1298 181.927 79.4254 185.63 79.43Z" fill="#E6E6E6"/>
<path d="M171.169 71.1873C176.303 71.1873 180.465 67.1614 180.465 62.1952C180.465 57.229 176.303 53.2031 171.169 53.2031C166.034 53.2031 161.872 57.229 161.872 62.1952C161.872 67.1614 166.034 71.1873 171.169 71.1873Z" fill="#F9A825"/>
<path d="M150.964 61.1841C151.569 61.1841 152.059 60.7098 152.059 60.1247C152.059 59.5397 151.569 59.0654 150.964 59.0654C150.359 59.0654 149.869 59.5397 149.869 60.1247C149.869 60.7098 150.359 61.1841 150.964 61.1841Z" fill="#3F3D56"/>
<path d="M114.81 62.1831C115.415 62.1831 115.905 61.7088 115.905 61.1238C115.905 60.5387 115.415 60.0645 114.81 60.0645C114.205 60.0645 113.715 60.5387 113.715 61.1238C113.715 61.7088 114.205 62.1831 114.81 62.1831Z" fill="#3F3D56"/>
<path d="M156.8 50.206C157.405 50.206 157.895 49.7318 157.895 49.1467C157.895 48.5617 157.405 48.0874 156.8 48.0874C156.195 48.0874 155.705 48.5617 155.705 49.1467C155.705 49.7318 156.195 50.206 156.8 50.206Z" fill="#3F3D56"/>
<path d="M156.77 80.7392C157.374 80.7392 157.865 80.265 157.865 79.6799C157.865 79.0949 157.374 78.6206 156.77 78.6206C156.165 78.6206 155.674 79.0949 155.674 79.6799C155.674 80.265 156.165 80.7392 156.77 80.7392Z" fill="#3F3D56"/>
<path d="M178.461 48.018C179.066 48.018 179.557 47.5438 179.557 46.9587C179.557 46.3737 179.066 45.8994 178.461 45.8994C177.857 45.8994 177.366 46.3737 177.366 46.9587C177.366 47.5438 177.857 48.018 178.461 48.018Z" fill="#3F3D56"/>
<path d="M107.704 76.9926C108.309 76.9926 108.799 76.5184 108.799 75.9333C108.799 75.3483 108.309 74.874 107.704 74.874C107.099 74.874 106.609 75.3483 106.609 75.9333C106.609 76.5184 107.099 76.9926 107.704 76.9926Z" fill="#3F3D56"/>
<path d="M115.709 92.229C116.314 92.229 116.805 91.7547 116.805 91.1697C116.805 90.5846 116.314 90.1104 115.709 90.1104C115.105 90.1104 114.614 90.5846 114.614 91.1697C114.614 91.7547 115.105 92.229 115.709 92.229Z" fill="#3F3D56"/>
<path d="M166.004 97.1649C168.286 97.1649 170.136 95.3756 170.136 93.1684C170.136 90.9612 168.286 89.1719 166.004 89.1719C163.722 89.1719 161.872 90.9612 161.872 93.1684C161.872 95.3756 163.722 97.1649 166.004 97.1649Z" fill="#FF6584"/>
<path opacity="0.2" d="M169.103 93.418C169.103 94.2129 168.776 94.9753 168.195 95.5374C167.614 96.0995 166.826 96.4153 166.004 96.4153C165.182 96.4153 164.394 96.0995 163.812 95.5374C163.231 94.9753 162.905 94.2129 162.905 93.418" fill="black"/>
<path opacity="0.2" d="M162.905 92.9183C162.905 92.1233 163.231 91.3609 163.812 90.7988C164.394 90.2367 165.182 89.9209 166.004 89.9209C166.826 89.9209 167.614 90.2367 168.195 90.7988C168.776 91.3609 169.103 92.1233 169.103 92.9183" fill="black"/>
<path d="M164.455 92.1688C164.597 92.1688 164.713 92.001 164.713 91.7941C164.713 91.5872 164.597 91.4194 164.455 91.4194C164.312 91.4194 164.196 91.5872 164.196 91.7941C164.196 92.001 164.312 92.1688 164.455 92.1688Z" fill="#FF6584"/>
<path d="M166.004 91.6693C166.146 91.6693 166.262 91.5015 166.262 91.2946C166.262 91.0877 166.146 90.9199 166.004 90.9199C165.861 90.9199 165.746 91.0877 165.746 91.2946C165.746 91.5015 165.861 91.6693 166.004 91.6693Z" fill="#FF6584"/>
<path d="M166.004 94.9163C166.146 94.9163 166.262 94.7486 166.262 94.5417C166.262 94.3347 166.146 94.167 166.004 94.167C165.861 94.167 165.746 94.3347 165.746 94.5417C165.746 94.7486 165.861 94.9163 166.004 94.9163Z" fill="#FF6584"/>
<path d="M167.553 92.9183C167.696 92.9183 167.811 92.7505 167.811 92.5436C167.811 92.3367 167.696 92.1689 167.553 92.1689C167.411 92.1689 167.295 92.3367 167.295 92.5436C167.295 92.7505 167.411 92.9183 167.553 92.9183Z" fill="#FF6584"/>
<path d="M167.295 95.6659C167.437 95.6659 167.553 95.4981 167.553 95.2912C167.553 95.0843 167.437 94.9165 167.295 94.9165C167.152 94.9165 167.037 95.0843 167.037 95.2912C167.037 95.4981 167.152 95.6659 167.295 95.6659Z" fill="#FF6584"/>
<path d="M164.196 94.4168C164.339 94.4168 164.454 94.2491 164.454 94.0422C164.454 93.8352 164.339 93.6675 164.196 93.6675C164.054 93.6675 163.938 93.8352 163.938 94.0422C163.938 94.2491 164.054 94.4168 164.196 94.4168Z" fill="#FF6584"/>
<path d="M174.268 86.4241C176.55 86.4241 178.399 84.6348 178.399 82.4276C178.399 80.2204 176.55 78.4312 174.268 78.4312C171.986 78.4312 170.136 80.2204 170.136 82.4276C170.136 84.6348 171.986 86.4241 174.268 86.4241Z" fill="#FF6584"/>
<path opacity="0.2" d="M177.366 82.6772C177.366 83.4722 177.04 84.2346 176.459 84.7967C175.877 85.3588 175.089 85.6746 174.267 85.6746C173.445 85.6746 172.657 85.3588 172.076 84.7967C171.495 84.2346 171.168 83.4722 171.168 82.6772" fill="black"/>
<path opacity="0.2" d="M171.168 82.178C171.168 81.3831 171.495 80.6207 172.076 80.0586C172.657 79.4965 173.445 79.1807 174.267 79.1807C175.089 79.1807 175.877 79.4965 176.459 80.0586C177.04 80.6207 177.366 81.3831 177.366 82.178" fill="black"/>
<path d="M172.718 81.4285C172.861 81.4285 172.976 81.2608 172.976 81.0539C172.976 80.8469 172.861 80.6792 172.718 80.6792C172.576 80.6792 172.46 80.8469 172.46 81.0539C172.46 81.2608 172.576 81.4285 172.718 81.4285Z" fill="#FF6584"/>
<path d="M174.268 80.929C174.41 80.929 174.526 80.7613 174.526 80.5544C174.526 80.3474 174.41 80.1797 174.268 80.1797C174.125 80.1797 174.009 80.3474 174.009 80.5544C174.009 80.7613 174.125 80.929 174.268 80.929Z" fill="#FF6584"/>
<path d="M174.268 84.1761C174.41 84.1761 174.526 84.0084 174.526 83.8014C174.526 83.5945 174.41 83.4268 174.268 83.4268C174.125 83.4268 174.009 83.5945 174.009 83.8014C174.009 84.0084 174.125 84.1761 174.268 84.1761Z" fill="#FF6584"/>
<path d="M175.817 82.1776C175.959 82.1776 176.075 82.0098 176.075 81.8029C176.075 81.596 175.959 81.4282 175.817 81.4282C175.674 81.4282 175.559 81.596 175.559 81.8029C175.559 82.0098 175.674 82.1776 175.817 82.1776Z" fill="#FF6584"/>
<path d="M175.559 84.9251C175.701 84.9251 175.817 84.7574 175.817 84.5505C175.817 84.3435 175.701 84.1758 175.559 84.1758C175.416 84.1758 175.3 84.3435 175.3 84.5505C175.3 84.7574 175.416 84.9251 175.559 84.9251Z" fill="#FF6584"/>
<path d="M172.46 83.6766C172.603 83.6766 172.718 83.5088 172.718 83.3019C172.718 83.095 172.603 82.9272 172.46 82.9272C172.317 82.9272 172.202 83.095 172.202 83.3019C172.202 83.5088 172.317 83.6766 172.46 83.6766Z" fill="#FF6584"/>
<path d="M182.531 91.9193C184.813 91.9193 186.663 90.13 186.663 87.9228C186.663 85.7156 184.813 83.9263 182.531 83.9263C180.249 83.9263 178.399 85.7156 178.399 87.9228C178.399 90.13 180.249 91.9193 182.531 91.9193Z" fill="#8C0B0B"/>
<path opacity="0.2" d="M185.63 88.1724C185.63 88.9673 185.303 89.7297 184.722 90.2918C184.141 90.8539 183.353 91.1697 182.531 91.1697C181.709 91.1697 180.921 90.8539 180.34 90.2918C179.759 89.7297 179.432 88.9673 179.432 88.1724" fill="black"/>
<path opacity="0.2" d="M179.432 87.6732C179.432 86.8782 179.759 86.1158 180.34 85.5537C180.921 84.9916 181.709 84.6758 182.531 84.6758C183.353 84.6758 184.141 84.9916 184.722 85.5537C185.303 86.1158 185.63 86.8782 185.63 87.6732" fill="black"/>
<path d="M180.982 86.9237C181.124 86.9237 181.24 86.7559 181.24 86.549C181.24 86.3421 181.124 86.1743 180.982 86.1743C180.839 86.1743 180.724 86.3421 180.724 86.549C180.724 86.7559 180.839 86.9237 180.982 86.9237Z" fill="#8C0B0B"/>
<path d="M182.531 86.4241C182.674 86.4241 182.789 86.2564 182.789 86.0495C182.789 85.8425 182.674 85.6748 182.531 85.6748C182.389 85.6748 182.273 85.8425 182.273 86.0495C182.273 86.2564 182.389 86.4241 182.531 86.4241Z" fill="#8C0B0B"/>
<path d="M182.531 89.6712C182.674 89.6712 182.789 89.5035 182.789 89.2965C182.789 89.0896 182.674 88.9219 182.531 88.9219C182.389 88.9219 182.273 89.0896 182.273 89.2965C182.273 89.5035 182.389 89.6712 182.531 89.6712Z" fill="#8C0B0B"/>
<path d="M184.081 87.6732C184.223 87.6732 184.339 87.5054 184.339 87.2985C184.339 87.0916 184.223 86.9238 184.081 86.9238C183.938 86.9238 183.822 87.0916 183.822 87.2985C183.822 87.5054 183.938 87.6732 184.081 87.6732Z" fill="#8C0B0B"/>
<path d="M183.822 90.4207C183.965 90.4207 184.08 90.253 184.08 90.0461C184.08 89.8391 183.965 89.6714 183.822 89.6714C183.68 89.6714 183.564 89.8391 183.564 90.0461C183.564 90.253 183.68 90.4207 183.822 90.4207Z" fill="#8C0B0B"/>
<path d="M180.724 89.1717C180.866 89.1717 180.982 89.004 180.982 88.797C180.982 88.5901 180.866 88.4224 180.724 88.4224C180.581 88.4224 180.465 88.5901 180.465 88.797C180.465 89.004 180.581 89.1717 180.724 89.1717Z" fill="#8C0B0B"/>
<path d="M161.872 92.4188C164.154 92.4188 166.004 90.6295 166.004 88.4223C166.004 86.2151 164.154 84.4258 161.872 84.4258C159.59 84.4258 157.74 86.2151 157.74 88.4223C157.74 90.6295 159.59 92.4188 161.872 92.4188Z" fill="#8C0B0B"/>
<path opacity="0.2" d="M164.971 88.6719C164.971 89.4668 164.644 90.2292 164.063 90.7913C163.482 91.3535 162.694 91.6692 161.872 91.6692C161.05 91.6692 160.262 91.3535 159.681 90.7913C159.099 90.2292 158.773 89.4668 158.773 88.6719" fill="black"/>
<path opacity="0.2" d="M158.773 88.1727C158.773 87.3777 159.099 86.6153 159.681 86.0532C160.262 85.4911 161.05 85.1753 161.872 85.1753C162.694 85.1753 163.482 85.4911 164.063 86.0532C164.644 86.6153 164.971 87.3777 164.971 88.1727" fill="black"/>
<path d="M160.323 87.4232C160.465 87.4232 160.581 87.2554 160.581 87.0485C160.581 86.8416 160.465 86.6738 160.323 86.6738C160.18 86.6738 160.064 86.8416 160.064 87.0485C160.064 87.2554 160.18 87.4232 160.323 87.4232Z" fill="#8C0B0B"/>
<path d="M161.872 86.9237C162.015 86.9237 162.13 86.7559 162.13 86.549C162.13 86.3421 162.015 86.1743 161.872 86.1743C161.729 86.1743 161.614 86.3421 161.614 86.549C161.614 86.7559 161.729 86.9237 161.872 86.9237Z" fill="#8C0B0B"/>
<path d="M161.872 90.1707C162.015 90.1707 162.13 90.003 162.13 89.7961C162.13 89.5891 162.015 89.4214 161.872 89.4214C161.729 89.4214 161.614 89.5891 161.614 89.7961C161.614 90.003 161.729 90.1707 161.872 90.1707Z" fill="#8C0B0B"/>
<path d="M163.421 88.1727C163.564 88.1727 163.68 88.0049 163.68 87.798C163.68 87.5911 163.564 87.4233 163.421 87.4233C163.279 87.4233 163.163 87.5911 163.163 87.798C163.163 88.0049 163.279 88.1727 163.421 88.1727Z" fill="#8C0B0B"/>
<path d="M163.163 90.9202C163.306 90.9202 163.421 90.7525 163.421 90.5456C163.421 90.3386 163.306 90.1709 163.163 90.1709C163.02 90.1709 162.905 90.3386 162.905 90.5456C162.905 90.7525 163.02 90.9202 163.163 90.9202Z" fill="#8C0B0B"/>
<path d="M160.064 89.6712C160.207 89.6712 160.323 89.5035 160.323 89.2965C160.323 89.0896 160.207 88.9219 160.064 88.9219C159.922 88.9219 159.806 89.0896 159.806 89.2965C159.806 89.5035 159.922 89.6712 160.064 89.6712Z" fill="#8C0B0B"/>
<path d="M171.168 94.1673C173.45 94.1673 175.3 92.378 175.3 90.1708C175.3 87.9636 173.45 86.1743 171.168 86.1743C168.887 86.1743 167.037 87.9636 167.037 90.1708C167.037 92.378 168.887 94.1673 171.168 94.1673Z" fill="#8C0B0B"/>
<path opacity="0.2" d="M174.268 90.4204C174.268 90.814 174.187 91.2038 174.032 91.5674C173.876 91.9311 173.648 92.2615 173.36 92.5399C173.072 92.8182 172.731 93.039 172.355 93.1896C171.979 93.3402 171.576 93.4178 171.169 93.4178C170.762 93.4178 170.359 93.3402 169.983 93.1896C169.607 93.039 169.265 92.8182 168.977 92.5399C168.69 92.2615 168.461 91.9311 168.306 91.5674C168.15 91.2038 168.07 90.814 168.07 90.4204" fill="black"/>
<path opacity="0.2" d="M168.07 89.9212C168.07 89.5276 168.15 89.1378 168.306 88.7742C168.461 88.4105 168.69 88.0801 168.977 87.8017C169.265 87.5234 169.607 87.3026 169.983 87.152C170.359 87.0014 170.762 86.9238 171.169 86.9238C171.576 86.9238 171.979 87.0014 172.355 87.152C172.731 87.3026 173.072 87.5234 173.36 87.8017C173.648 88.0801 173.876 88.4105 174.032 88.7742C174.187 89.1378 174.268 89.5276 174.268 89.9212" fill="black"/>
<path d="M169.619 89.1717C169.762 89.1717 169.877 89.004 169.877 88.797C169.877 88.5901 169.762 88.4224 169.619 88.4224C169.476 88.4224 169.361 88.5901 169.361 88.797C169.361 89.004 169.476 89.1717 169.619 89.1717Z" fill="#8C0B0B"/>
<path d="M171.168 88.6722C171.311 88.6722 171.427 88.5044 171.427 88.2975C171.427 88.0906 171.311 87.9229 171.168 87.9229C171.026 87.9229 170.91 88.0906 170.91 88.2975C170.91 88.5044 171.026 88.6722 171.168 88.6722Z" fill="#8C0B0B"/>
<path d="M171.168 91.9193C171.311 91.9193 171.427 91.7515 171.427 91.5446C171.427 91.3377 171.311 91.1699 171.168 91.1699C171.026 91.1699 170.91 91.3377 170.91 91.5446C170.91 91.7515 171.026 91.9193 171.168 91.9193Z" fill="#8C0B0B"/>
<path d="M172.718 89.9212C172.861 89.9212 172.976 89.7535 172.976 89.5465C172.976 89.3396 172.861 89.1719 172.718 89.1719C172.576 89.1719 172.46 89.3396 172.46 89.5465C172.46 89.7535 172.576 89.9212 172.718 89.9212Z" fill="#8C0B0B"/>
<path d="M172.46 92.6688C172.603 92.6688 172.718 92.501 172.718 92.2941C172.718 92.0872 172.603 91.9194 172.46 91.9194C172.317 91.9194 172.202 92.0872 172.202 92.2941C172.202 92.501 172.317 92.6688 172.46 92.6688Z" fill="#8C0B0B"/>
<path d="M169.361 91.4198C169.503 91.4198 169.619 91.252 169.619 91.0451C169.619 90.8382 169.503 90.6704 169.361 90.6704C169.218 90.6704 169.103 90.8382 169.103 91.0451C169.103 91.252 169.218 91.4198 169.361 91.4198Z" fill="#8C0B0B"/>
<path d="M177.625 98.4134C179.906 98.4134 181.756 96.6241 181.756 94.4169C181.756 92.2097 179.906 90.4204 177.625 90.4204C175.343 90.4204 173.493 92.2097 173.493 94.4169C173.493 96.6241 175.343 98.4134 177.625 98.4134Z" fill="#FF6584"/>
<path opacity="0.2" d="M180.724 94.667C180.724 95.4619 180.397 96.2243 179.816 96.7864C179.235 97.3486 178.447 97.6644 177.625 97.6644C176.803 97.6644 176.015 97.3486 175.434 96.7864C174.852 96.2243 174.526 95.4619 174.526 94.667" fill="black"/>
<path opacity="0.2" d="M174.526 94.1673C174.526 93.3723 174.852 92.6099 175.434 92.0478C176.015 91.4857 176.803 91.1699 177.625 91.1699C178.447 91.1699 179.235 91.4857 179.816 92.0478C180.397 92.6099 180.724 93.3723 180.724 94.1673" fill="black"/>
<path d="M176.075 93.4178C176.218 93.4178 176.333 93.2501 176.333 93.0431C176.333 92.8362 176.218 92.6685 176.075 92.6685C175.933 92.6685 175.817 92.8362 175.817 93.0431C175.817 93.2501 175.933 93.4178 176.075 93.4178Z" fill="#FF6584"/>
<path d="M177.624 92.9183C177.767 92.9183 177.883 92.7505 177.883 92.5436C177.883 92.3367 177.767 92.1689 177.624 92.1689C177.482 92.1689 177.366 92.3367 177.366 92.5436C177.366 92.7505 177.482 92.9183 177.624 92.9183Z" fill="#FF6584"/>
<path d="M177.624 96.1654C177.767 96.1654 177.883 95.9976 177.883 95.7907C177.883 95.5838 177.767 95.416 177.624 95.416C177.482 95.416 177.366 95.5838 177.366 95.7907C177.366 95.9976 177.482 96.1654 177.624 96.1654Z" fill="#FF6584"/>
<path d="M179.174 94.1673C179.316 94.1673 179.432 93.9996 179.432 93.7926C179.432 93.5857 179.316 93.418 179.174 93.418C179.031 93.418 178.916 93.5857 178.916 93.7926C178.916 93.9996 179.031 94.1673 179.174 94.1673Z" fill="#FF6584"/>
<path d="M178.916 96.9149C179.059 96.9149 179.174 96.7471 179.174 96.5402C179.174 96.3333 179.059 96.1655 178.916 96.1655C178.773 96.1655 178.658 96.3333 178.658 96.5402C178.658 96.7471 178.773 96.9149 178.916 96.9149Z" fill="#FF6584"/>
<path d="M175.817 95.6659C175.959 95.6659 176.075 95.4981 176.075 95.2912C176.075 95.0843 175.959 94.9165 175.817 94.9165C175.674 94.9165 175.559 95.0843 175.559 95.2912C175.559 95.4981 175.674 95.6659 175.817 95.6659Z" fill="#FF6584"/>
<path d="M124.49 80.2397C125.095 80.2397 125.585 79.7654 125.585 79.1804C125.585 78.5954 125.095 78.1211 124.49 78.1211C123.885 78.1211 123.395 78.5954 123.395 79.1804C123.395 79.7654 123.885 80.2397 124.49 80.2397Z" fill="#3F3D56"/>
<path d="M154.259 117.631L127.956 110.576L128.964 106.956L155.266 114.011L154.259 117.631Z" fill="#F9A825"/>
<path d="M150.403 116.421C141.396 118.089 132.143 118.089 123.136 116.421V112.668C132.164 114.116 141.376 114.116 150.403 112.668V116.421Z" fill="#F9A825"/>
<path d="M153.206 105.164C144.199 106.831 134.946 106.831 125.939 105.164V101.411C134.966 102.858 144.178 102.858 153.206 101.411V105.164Z" fill="#F9A825"/>
<path d="M162.634 109.667C153.627 111.334 144.375 111.334 135.368 109.667V105.914C144.395 107.361 153.607 107.361 162.634 105.914V109.667Z" fill="#F9A825"/>
<path d="M164.928 113.92C155.921 115.587 146.668 115.587 137.661 113.92V110.167C146.688 111.614 155.901 111.614 164.928 110.167V113.92Z" fill="#F9A825"/>
<path d="M172.924 119.477L146.023 123.847L145.399 120.145L172.3 115.774L172.924 119.477Z" fill="#F9A825"/>
<path d="M168.906 119.958C161.448 125.158 153.042 128.95 144.13 131.135L142.534 127.725C151.368 125.332 159.737 121.557 167.31 116.548L168.906 119.958Z" fill="#F9A825"/>
<path d="M166.665 108.579C159.206 113.779 150.801 117.571 141.889 119.756L140.292 116.347C149.127 113.954 157.496 110.178 165.069 105.169L166.665 108.579Z" fill="#F9A825"/>
<path d="M177.148 108.806C169.689 114.006 161.284 117.798 152.371 119.983L150.775 116.574C159.609 114.181 167.979 110.405 175.551 105.396L177.148 108.806Z" fill="#F9A825"/>
<path d="M181.04 111.731C173.582 116.931 165.176 120.723 156.264 122.908L154.668 119.498C163.502 117.105 171.871 113.33 179.444 108.321L181.04 111.731Z" fill="#F9A825"/>
<path d="M148.444 104.408H147.152V105.657H148.444V104.408Z" fill="#00BF71"/>
<path d="M152.317 126.139H151.026V127.388H152.317V126.139Z" fill="#00BF71"/>
<path d="M131.658 104.408H130.367V105.657H131.658V104.408Z" fill="#00BF71"/>
<path d="M161.613 119.895H160.322V121.143H161.613V119.895Z" fill="#00BF71"/>
<path d="M162.388 112.651H161.097V113.9H162.388V112.651Z" fill="#00BF71"/>
<path d="M141.089 109.232L139.593 108.25L139.013 109.077L140.509 110.058L141.089 109.232Z" fill="#00BF71"/>
<path d="M156.325 111.979L154.829 110.998L154.249 111.824L155.745 112.806L156.325 111.979Z" fill="#00BF71"/>
<path d="M137.732 116.725L136.236 115.743L135.656 116.57L137.152 117.552L137.732 116.725Z" fill="#00BF71"/>
<path d="M147.201 116.652L148.216 115.206L147.362 114.645L146.347 116.091L147.201 116.652Z" fill="#00BF71"/>
<path d="M154.174 118.401L155.189 116.954L154.334 116.393L153.319 117.84L154.174 118.401Z" fill="#00BF71"/>
<path d="M172.769 112.406L173.784 110.959L172.929 110.398L171.914 111.845L172.769 112.406Z" fill="#00BF71"/>
<path d="M295 155.28H0V156H295V155.28Z" fill="#3F3D56"/>
</g>
<defs>
<clipPath id="clip0_94_507">
<rect width="295" height="156" fill="white"/>
</clipPath>
</defs>
</svg>
